<svg xmlns="http://www.w3.org/2000/svg" version="1.0" width="1667.000000pt" height="1667.000000pt" viewBox="0 0 1667.000000 1667.000000" preserveAspectRatio="xMidYMid meet">

<g transform="translate(0.000000,1667.000000) scale(0.100000,-0.100000)" fill="#03a9f4" stroke="none">
<path d="M7925 16663 c-1766 -88 -3453 -733 -4828 -1846 -432 -349 -895 -812 -1244 -1244 -983 -1214 -1598 -2661 -1792 -4213 -71 -565 -80 -1249 -25 -1815 228 -2346 1418 -4462 3309 -5882 1142 -857 2497 -1408 3915 -1592 1913 -249 3874 180 5490 1199 533 336 973 685 1428 1135 561 552 1004 1125 1387 1790 904 1573 1270 3417 1035 5215 -293 2235 -1467 4239 -3280 5602 -830 623 -1788 1091 -2796 1367 -560 153 -1121 244 -1734 281 -148 9 -710 11 -865 3z m-830 -3733 c569 -29 991 -109 1917 -365 904 -250 1165 -299 1583 -299 201 0 259 4 355 22 312 57 539 171 865 433 161 129 235 169 312 169 132 0 137 -5 715 -684 281 -330 517 -616 525 -635 26 -63 1 -168 -55 -227 -11 -12 -1419 -1153 -3128 -2535 l-3107 -2514 104 -2 c310 -7 595 -51 918 -144 58 -16 306 -97 551 -179 645 -217 831 -260 1116 -260 312 0 503 79 616 254 75 117 109 275 133 626 9 124 20 251 26 283 51 290 218 504 477 611 210 88 565 108 807 46 383 -98 641 -366 733 -765 45 -193 50 -400 16 -682 -62 -525 -268 -1036 -561 -1395 -291 -356 -712 -624 -1198 -763 -496 -142 -1152 -162 -1790 -54 -330 55 -669 148 -1280 349 -610 201 -852 269 -1157 324 -285 53 -634 71 -866 45 -402 -43 -730 -186 -1092 -474 -135 -107 -203 -139 -307 -144 -146 -6 -103 -51 -663 684 -287 376 -497 662 -507 687 -10 26 -16 74 -16 124 -1 68 3 90 27 137 26 55 92 108 3176 2557 1732 1375 3152 2505 3155 2510 4 6 -24 10 -72 10 -248 0 -583 59 -1343 234 -595 137 -832 176 -1056 177 -143 0 -219 -10 -332 -41 -262 -73 -451 -244 -526 -475 -35 -108 -47 -200 -60 -455 -16 -293 -27 -348 -93 -470 -152 -280 -451 -430 -858 -430 -329 0 -565 88 -761 284 -228 227 -324 546 -294 973 30 425 154 841 359 1198 126 220 232 356 409 527 468 451 1042 688 1767 728 197 11 243 11 460 0z" fill="#03a9f4"/>
</g>
</svg>